<?xml version="1.0" standalone="no"?>
        <!DOCTYPE svg PUBLIC "-//W3C//DTD SVG 1.1//EN" 
        "http://www.w3.org/Graphics/SVG/1.1/DTD/svg11.dtd"> <svg style="color: rgb(93, 183, 145);" xmlns="http://www.w3.org/2000/svg" data-name="Layer 1" viewBox="0 0 24 24"><path d="M19,4H9A1,1,0,0,0,8,5V7H3A1,1,0,0,0,3,9H8v4a1,1,0,0,0,2,0V12h4v7a1,1,0,0,0,1,1h2a3,3,0,0,0,3-3V11.82A3,3,0,0,0,22,9V7A3,3,0,0,0,19,4ZM18,17a1,1,0,0,1-1,1H16V12h2Zm2-8a1,1,0,0,1-1,1H10V6h6V7a1,1,0,0,0,2,0V6h1a1,1,0,0,1,1,1Z" fill="#5db791"></path></svg> 