<?xml version="1.0" encoding="utf-8"?>
<!-- Generator: Adobe Illustrator 16.0.2, SVG Export Plug-In . SVG Version: 6.00 Build 0)  -->
<!DOCTYPE svg PUBLIC "-//W3C//DTD SVG 1.0//EN" "http://www.w3.org/TR/2001/REC-SVG-20010904/DTD/svg10.dtd">
<svg version="1.0" id="Слой_1" xmlns="http://www.w3.org/2000/svg" xmlns:xlink="http://www.w3.org/1999/xlink" x="0px" y="0px"
	 width="886.607px" height="140.625px" viewBox="0 0 886.607 140.625" enable-background="new 0 0 886.607 140.625"
	 xml:space="preserve">
<g>
	<g>
		
			<path fill="#ED1C24" stroke="#000000" stroke-width="2" stroke-linecap="round" stroke-linejoin="round" stroke-miterlimit="10" d="
			M810.776,69.117c0.356,6.871,1.063,36.405,0.707,43.306c2.479,0.178,12.563,0.885,14.686-0.355
			c2.832-1.593,0.706-10.084,0.528-12.913c-0.176-3.892-1.413-8.671,0.355-12.209c2.477-4.245,7.432-6.9,10.616-1.945
			c5.131,7.96,0.175,18.399,1.063,26.711c5.129-0.354,10.436,0.177,15.566,0.177c0.179-4.597-1.769-9.728-1.946-14.504
			c0-4.247,0-9.378,2.831-13.094c4.247-5.657,9.2-1.769,9.907,3.895c0.53,5.128,0.355,10.436,0.709,15.392
			c0.175,2.83,0,5.481,0.175,8.312c4.954,0,11.147,0.18,16.102,0.18c1.06-9.379,1.237-18.755,0.353-27.953
			c-0.353-4.6,0-10.415-3.712-13.937c-3.363-3.185-10.262-3.713-14.508-3.007c-5.307,1.062-9.022,3.888-12.208,8.111
			c-4.597-11.83-18.045-6.877-23.526,1.404c-0.355-2.637-0.531-5.45,0-8.102C824.221,68.409,815.905,68.233,810.776,69.117"/>
		
			<path fill="#ED1C24" stroke="#000000" stroke-width="2" stroke-linecap="round" stroke-linejoin="round" stroke-miterlimit="10" d="
			M250.732,17.375c0,33.237,2.891,64.989,2.891,98.224c0-0.723-27.56,3.295-28.178-2.888c-1.444-14.45-3.612-36.122-2.89-46.925
			c-1.444,17.306-11.56,31.03-15.173,47.646c-15.172,1.448-19.506,2.172-23.842-12.283c-2.891-11.561-6.503-23.122-11.561-33.92
			c0,15.856,0,33.198,2.167,48.369c-7.947,0.724-16.618,1.445-24.564,0c0-31.791-2.168-64.987-2.168-97.501
			c11.56,0,27.455-1.447,39.018,0v0.723c0.722,13.728,8.669,31.068,13.726,43.351c2.167-13.726,10.115-30.345,11.56-42.628
			c12.284-2.169,28.903-5.782,39.74-2.169"/>
		
			<path fill="#ED1C24" stroke="#000000" stroke-width="2" stroke-linecap="round" stroke-linejoin="round" stroke-miterlimit="10" d="
			M302.514,40.496c-26.011-0.48-43.761,24.407-40.462,49.576c5.298,40.458,72.494,40.942,74.902,1.928l-0.241-0.484
			c-4.523-0.306-9.258-1.204-13.97-0.962c-4.88,0.248-10.102,0.633-14.846,0.555c-3.611,12.044-20.31,3.494-15.206-4.703
			c4.304-6.91,44.752,1.349,45.467-2.836C341.529,63.857,323.708,40.977,302.514,40.496z M294.325,69.878
			c0,0-2.406-15.15,10.116-10.596c5.299,1.928,5.299,10.114,5.299,10.114L294.325,69.878z"/>
		
			<path fill="#ED1C24" stroke="#000000" stroke-width="2" stroke-linecap="round" stroke-linejoin="round" stroke-miterlimit="10" d="
			M560.21,40.496c-26.011-0.48-43.762,24.407-40.461,49.576c5.301,40.458,72.491,40.942,74.899,1.928l-0.242-0.484
			c-4.521-0.307-9.259-1.204-13.968-0.963c-4.879,0.249-10.101,0.632-14.848,0.554c-3.609,12.044-20.307,3.496-15.203-4.701
			c4.304-6.911,44.748,1.348,45.466-2.838C599.226,63.857,581.403,40.977,560.21,40.496z M552.023,69.878
			c0,0-2.406-15.15,10.113-10.596c5.3,1.928,5.3,10.114,5.3,10.114L552.023,69.878z"/>
		
			<path fill="#ED1C24" stroke="#000000" stroke-width="2" stroke-linecap="round" stroke-linejoin="round" stroke-miterlimit="10" d="
			M379.101,114.637c0-9.153-1.447-18.304-0.963-27.456c0.48-4.816,0.963-11.549,4.334-15.858c4.818-4.816,8.669-3.371,14.933-4.333
			c0.48-7.226,0-18.304-0.481-26.011c-4.334,0-7.707-0.962-11.56,0c-5.3,1.446-7.226,1.928-9.633,7.708l0,0
			c-0.482-11.561-20.712-3.373-28.42-6.743h0.242c0.482,37.053,0.242,48.613,0.242,72.696L379.101,114.637L379.101,114.637z"/>
		
			<path fill="#ED1C24" stroke="#000000" stroke-width="2" stroke-linecap="round" stroke-linejoin="round" stroke-miterlimit="10" d="
			M435.456,114.637c0-9.153-1.443-18.304-0.961-27.456c0.482-4.816,0.961-11.549,4.333-15.858c4.815-4.816,8.67-3.371,14.936-4.333
			c0.479-7.226,0-18.304-0.481-26.011c-4.338,0-7.708-0.962-11.563,0c-5.299,1.446-7.225,1.928-9.631,7.708l0,0
			c-0.482-11.561-20.712-3.373-28.42-6.743h0.242c0.481,37.053,0.241,48.613,0.241,72.696L435.456,114.637L435.456,114.637z"/>
		
			<path fill="#ED1C24" stroke="#000000" stroke-width="2" stroke-linecap="round" stroke-linejoin="round" stroke-miterlimit="10" d="
			M508.189,18.821c0,18.786,0.48,38.052,0.48,56.811c0,9.624,1.446,17.089-2.405,26.721c-4.335,10.596-15.897,13.009-26.49,14.45
			c-8.19,0.964-17.345,0.481-25.531-0.48l2.405-25.771c6.743-1.445,15.898,3.373,20.232-3.854
			c3.374-5.777,2.169-18.262,2.169-24.525c0-14.45-1.205-29.382-1.205-43.833L508.189,18.821z"/>
		
			<path fill="#ED1C24" stroke="#000000" stroke-width="2" stroke-linecap="round" stroke-linejoin="round" stroke-miterlimit="10" d="
			M653.659,40.977c-4.337,0-7.708-0.962-11.563,0c-5.3,1.446-7.226,1.928-9.632,7.707c-0.479-11.444-20.304-3.541-28.179-6.654
			c0.478,37.019,0.24,71.661,0.24,95.726h29.141l-0.48-24.565c0,0,8.91,0.482,10.838,0.482c13.976,0,31.549-1.204,32.993-28.66
			C678.464,57.595,662.325,42.423,653.659,40.977z M637.708,93.668l-3.556,0.017c0.479-4.817-3.142-23.806,0.229-28.141
			c1.657-3.086,4.396-3.552,10.055-2.724C646.807,64.732,652.332,93.262,637.708,93.668z"/>
		
			<path fill="#ED1C24" stroke="#000000" stroke-width="2" stroke-linecap="round" stroke-linejoin="round" stroke-miterlimit="10" d="
			M699.443,97.868c-4.543-1.099-12.057-1.492-16.392-0.527L683,97.411c0,6.26,0.07,12.501,0.55,18.281
			c5.301,0.962,11.08-0.48,16.376-0.48C700.093,109.367,699.443,103.647,699.443,97.868z"/>
		<g>
			
				<path fill="#ED1C24" stroke="#000000" stroke-width="2" stroke-linecap="round" stroke-linejoin="round" stroke-miterlimit="10" d="
				M727.052,92.109c0,0-1.539-13.755,8.705-13.293c6.584,0.301,6.22,6.341,5.505,9.371c6.655,0.313,14.281,1.245,14.193-0.075
				c-0.843-12.712-9.195-19.229-20.747-19.493c-14.173-0.26-23.847,13.263-22.048,27c2.889,22.048,41.016,22.567,43.457-1.589
				l-0.131-0.263c-2.463-0.167-5.134-0.359-7.696-0.228c-2.662,0.134-4.101,0.044-6.688,0.006
				C739.587,102.234,726.944,99.479,727.052,92.109z"/>
		</g>
		
			<path fill="#ED1C24" stroke="#000000" stroke-width="2" stroke-linecap="round" stroke-linejoin="round" stroke-miterlimit="10" d="
			M804.597,83.685c-0.891-3.086-2.448-5.604-4.447-7.594c-3.684-4.797-9.538-7.311-16.593-7.474
			c-14.172-0.26-23.848,13.262-22.048,26.999c2.556,19.496,32.646,22.143,41.268,5.799
			C806.122,95.814,806.272,89.491,804.597,83.685z M790.453,93.542c-2.017,8.692-14.663,5.938-14.552-1.433
			c0,0-1.539-13.755,8.706-13.293C790.453,79.082,792.295,86.058,790.453,93.542z"/>
		<g>
			<path fill="#FFFFFF" d="M813.074,71.228c0,0,0.064,0.604,0.176,1.66c0.082,1.059,0.253,2.565,0.36,4.376
				c0.106,1.823,0.276,3.946,0.38,6.228c0.118,2.281,0.192,4.711,0.273,7.143c0.054,2.434,0.11,4.869,0.118,7.147
				c0.022,2.283-0.031,4.415-0.039,6.242c-0.009,1.826-0.097,3.348-0.123,4.416c-0.052,1.067-0.083,1.678-0.083,1.678
				s-0.064-0.608-0.175-1.668c-0.083-1.066-0.253-2.581-0.361-4.404c-0.108-1.824-0.279-3.947-0.38-6.229
				c-0.117-2.281-0.192-4.71-0.272-7.145c-0.052-2.433-0.111-4.868-0.116-7.147c-0.024-2.282,0.027-4.413,0.039-6.238
				c0.01-1.817,0.098-3.328,0.121-4.391C813.042,71.834,813.074,71.228,813.074,71.228z"/>
		</g>
		<g>
			<path fill="#FFFFFF" d="M843.509,70.395c0,0-0.258,0.074-0.71,0.203c-0.229,0.054-0.505,0.124-0.819,0.199
				c-0.325,0.053-0.66,0.191-1.019,0.326c-0.36,0.138-0.748,0.277-1.158,0.409c-0.399,0.188-0.819,0.383-1.255,0.583
				c-0.22,0.098-0.439,0.196-0.663,0.3c-0.212,0.128-0.428,0.254-0.646,0.375c-0.435,0.253-0.898,0.471-1.318,0.762
				c-0.426,0.282-0.852,0.566-1.271,0.847c-0.429,0.265-0.797,0.604-1.185,0.889c-0.364,0.306-0.775,0.549-1.085,0.862
				c-0.321,0.301-0.642,0.576-0.94,0.833c-0.608,0.498-1.013,1.014-1.368,1.323c-0.345,0.319-0.54,0.505-0.54,0.505
				s0.12-0.24,0.326-0.66c0.24-0.399,0.501-1.047,1.017-1.669c0.245-0.32,0.514-0.668,0.813-1.023
				c0.279-0.375,0.652-0.692,1.021-1.043c0.386-0.332,0.726-0.75,1.183-1.035c0.438-0.308,0.884-0.624,1.326-0.939
				c0.461-0.293,0.963-0.519,1.435-0.772c0.467-0.271,0.962-0.461,1.451-0.616c0.485-0.171,0.955-0.328,1.406-0.451
				c0.472-0.091,0.918-0.157,1.329-0.217c0.406-0.069,0.773-0.117,1.097-0.084c0.325,0.015,0.608,0.027,0.844,0.037
				C843.241,70.373,843.509,70.395,843.509,70.395z"/>
		</g>
		<g>
			<path fill="#FFFFFF" d="M868.449,68.044c0,0-0.258,0.076-0.711,0.202c-0.228,0.056-0.504,0.125-0.818,0.201
				c-0.323,0.054-0.659,0.193-1.019,0.328c-0.36,0.137-0.747,0.279-1.157,0.411c-0.399,0.187-0.819,0.384-1.256,0.584
				c-0.219,0.099-0.438,0.197-0.663,0.302c-0.211,0.129-0.428,0.255-0.647,0.378c-0.432,0.254-0.896,0.473-1.316,0.763
				c-0.425,0.283-0.854,0.567-1.27,0.845c-0.43,0.267-0.796,0.604-1.184,0.89c-0.365,0.309-0.776,0.555-1.085,0.87
				c-0.322,0.302-0.643,0.576-0.941,0.831c-0.607,0.497-1.013,1.008-1.367,1.312c-0.345,0.319-0.541,0.504-0.541,0.504
				s0.121-0.24,0.327-0.652c0.24-0.397,0.504-1.038,1.016-1.663c0.246-0.321,0.516-0.67,0.813-1.025
				c0.279-0.381,0.652-0.696,1.021-1.048c0.386-0.332,0.727-0.746,1.185-1.035c0.436-0.307,0.882-0.625,1.325-0.942
				c0.46-0.294,0.962-0.519,1.434-0.776c0.467-0.271,0.962-0.465,1.451-0.62c0.486-0.171,0.955-0.327,1.406-0.452
				c0.472-0.091,0.92-0.158,1.329-0.218c0.406-0.069,0.773-0.115,1.098-0.083c0.324,0.016,0.607,0.027,0.843,0.036
				C868.181,68.024,868.449,68.044,868.449,68.044z"/>
		</g>
		<g>
			<path fill="#FFFFFF" d="M841.382,84.636c0,0,0.651,1.407,1.209,3.68c0.266,1.132,0.523,2.47,0.678,3.92
				c0.182,1.449,0.232,3.004,0.222,4.561c-0.025,0.779-0.059,1.56-0.134,2.324c-0.036,0.766-0.19,1.514-0.284,2.235
				c-0.263,1.441-0.587,2.776-1.007,3.874c-0.188,0.556-0.399,1.052-0.619,1.475c-0.206,0.428-0.377,0.8-0.565,1.09
				c-0.351,0.583-0.564,0.904-0.564,0.904s0.11-0.377,0.33-1.01c0.22-0.632,0.465-1.555,0.686-2.667
				c0.134-0.551,0.212-1.161,0.324-1.8c0.113-0.637,0.161-1.325,0.262-2.021c0.115-1.41,0.245-2.914,0.25-4.43
				c0.066-3.021-0.11-6.053-0.325-8.333c-0.121-1.135-0.208-2.086-0.314-2.751C841.425,85.022,841.382,84.636,841.382,84.636z"/>
		</g>
		<g>
			<path fill="#FFFFFF" d="M866.502,82.867c0,0,0.152,0.396,0.392,1.102c0.116,0.353,0.256,0.778,0.418,1.268
				c0.134,0.501,0.268,1.074,0.402,1.702c0.314,1.258,0.487,2.729,0.71,4.313c0.161,1.581,0.315,3.277,0.394,4.969
				c0.169,3.387,0.139,6.768,0.055,9.307c-0.036,1.27-0.122,2.329-0.155,3.066c-0.047,0.742-0.09,1.165-0.09,1.165
				s-0.072-0.42-0.166-1.157c-0.079-0.737-0.237-1.787-0.347-3.054c-0.248-2.526-0.436-5.902-0.615-9.264
				c-0.049-1.685-0.182-3.358-0.231-4.934c-0.123-1.567-0.156-3.05-0.296-4.282c-0.05-0.632-0.096-1.206-0.137-1.716
				c-0.075-0.514-0.137-0.959-0.191-1.324C866.546,83.291,866.502,82.867,866.502,82.867z"/>
		</g>
		<g>
			<path fill="#FFFFFF" d="M150.989,57.805c-0.121-1.531-0.223-3.063-0.315-4.596l-0.28-4.597l-0.451-9.198l-0.329-9.202
				c-0.103-3.066-0.229-6.134-0.273-9.203v-0.015c-0.003-0.335,0.254-0.614,0.584-0.637c2.517-0.188,5.028-0.34,7.543-0.484
				c2.515-0.141,5.032-0.245,7.551-0.274c1.26-0.034,2.52-0.046,3.78-0.039c1.261,0.015,2.519-0.039,3.781,0.035l3.777,0.17
				c1.259,0.121,2.512,0.269,3.76,0.416l-3.771-0.096l-3.766,0.097c-1.253,0.032-2.509,0.105-3.763,0.156
				c-1.253,0.047-2.507,0.114-3.761,0.201c-5.009,0.342-10.028,0.629-15.025,1.085l0.583-0.651c0.126,3.065,0.167,6.133,0.234,9.203
				l0.177,9.206l0.054,9.208L151.05,53.2C151.044,54.733,151.026,56.268,150.989,57.805z"/>
		</g>
		<g>
			<path fill="#FFFFFF" d="M202.771,60.23c0.437-1.634,0.894-3.263,1.36-4.887l1.396-4.876l2.89-9.72l3.017-9.68
				c1-3.226,2.008-6.453,3.075-9.66l0.006-0.017c0.073-0.223,0.264-0.375,0.48-0.413c5.241-0.896,10.484-1.706,15.783-2.176
				c2.645-0.236,5.297-0.438,7.956-0.485c1.331-0.011,2.663,0.005,3.991,0.083c0.664,0.024,1.326,0.123,1.987,0.189
				c0.66,0.074,1.307,0.258,1.954,0.382c-0.662-0.067-1.31-0.192-1.972-0.207c-0.662-0.008-1.318-0.073-1.979-0.049
				c-1.319,0.009-2.639,0.083-3.955,0.18c-2.633,0.216-5.26,0.478-7.88,0.832c-2.617,0.359-5.229,0.761-7.843,1.153
				c-2.611,0.411-5.22,0.854-7.811,1.344l0.486-0.429c-0.989,3.232-2.04,6.444-3.096,9.655l-3.153,9.637l-3.276,9.597l-1.69,4.782
				C203.934,57.054,203.362,58.646,202.771,60.23z"/>
		</g>
		<g>
			<path fill="#FFFFFF" d="M263.654,85.678c0,0-0.031-0.991,0.082-2.726c0.055-0.868,0.161-1.919,0.309-3.121
				c0.155-1.204,0.359-2.56,0.683-4.01c0.624-2.9,1.543-6.278,3.003-9.739c0.753-1.721,1.59-3.473,2.576-5.189
				c1.006-1.699,2.079-3.404,3.338-4.979c1.265-1.565,2.63-3.055,4.119-4.368c1.457-1.348,3.044-2.498,4.624-3.529
				c1.603-0.998,3.224-1.846,4.832-2.479c0.795-0.336,1.576-0.64,2.354-0.873c0.769-0.257,1.512-0.499,2.246-0.663
				c1.445-0.413,2.809-0.601,4.007-0.799c1.208-0.137,2.26-0.237,3.126-0.303c1.736-0.04,2.729-0.063,2.729-0.063
				s-0.984,0.116-2.705,0.316c-0.854,0.133-1.89,0.309-3.066,0.534c-1.166,0.29-2.486,0.576-3.887,1.028
				c-0.711,0.193-1.428,0.464-2.165,0.749c-0.749,0.26-1.494,0.591-2.252,0.954c-1.533,0.686-3.054,1.593-4.599,2.559
				c-1.511,1.021-3.026,2.152-4.412,3.476c-1.42,1.287-2.711,2.75-3.917,4.278c-1.242,1.503-2.307,3.142-3.309,4.78
				c-0.986,1.649-1.83,3.354-2.588,5.022c-1.476,3.363-2.611,6.611-3.334,9.455c-0.747,2.85-1.215,5.276-1.457,6.992
				C263.739,84.687,263.654,85.678,263.654,85.678z"/>
		</g>
		<g>
			<path fill="#FFFFFF" d="M290.355,67.511c0,0-0.44-1.168-0.413-3.039c0.01-0.466,0.028-0.974,0.13-1.505
				c0.055-0.539,0.229-1.088,0.389-1.663c0.246-0.541,0.405-1.156,0.778-1.678c0.169-0.266,0.33-0.547,0.517-0.806l0.634-0.737
				c0.412-0.505,0.987-0.834,1.467-1.246c0.539-0.33,1.105-0.596,1.64-0.855c0.563-0.189,1.115-0.346,1.632-0.495
				c0.525-0.108,1.034-0.143,1.494-0.199c0.459-0.07,0.883-0.083,1.259-0.046c0.374,0.023,0.698,0.041,0.965,0.057
				c0.53,0.049,0.833,0.078,0.833,0.078s-0.299,0.066-0.818,0.186c-0.258,0.05-0.572,0.112-0.93,0.184
				c-0.36,0.047-0.754,0.153-1.177,0.291c-0.418,0.124-0.873,0.259-1.354,0.401c-0.455,0.202-0.93,0.413-1.428,0.608
				c-0.451,0.274-0.918,0.558-1.391,0.844c-0.401,0.375-0.896,0.66-1.235,1.106l-0.561,0.614c-0.167,0.221-0.309,0.462-0.464,0.688
				c-0.332,0.441-0.526,0.959-0.78,1.425c-0.166,0.505-0.403,0.973-0.513,1.458c-0.147,0.475-0.249,0.939-0.336,1.37
				C290.362,66.28,290.355,67.511,290.355,67.511z"/>
		</g>
		<g>
			<path fill="#FFFFFF" d="M521.756,85.678c0,0-0.031-0.991,0.081-2.726c0.052-0.868,0.157-1.919,0.308-3.121
				c0.152-1.204,0.358-2.56,0.681-4.01c0.629-2.901,1.545-6.278,3.004-9.739c0.754-1.721,1.589-3.473,2.576-5.189
				c1.006-1.699,2.079-3.406,3.336-4.979c1.267-1.565,2.631-3.056,4.119-4.368c1.459-1.348,3.044-2.498,4.623-3.529
				c1.604-0.998,3.227-1.846,4.835-2.479c0.797-0.336,1.574-0.64,2.354-0.873c0.769-0.257,1.514-0.499,2.244-0.663
				c1.447-0.413,2.812-0.601,4.007-0.799c1.206-0.137,2.259-0.237,3.126-0.303c1.735-0.04,2.727-0.063,2.727-0.063
				s-0.983,0.116-2.704,0.316c-0.854,0.133-1.891,0.309-3.066,0.534c-1.165,0.29-2.485,0.576-3.885,1.028
				c-0.711,0.193-1.427,0.464-2.167,0.749c-0.745,0.26-1.495,0.591-2.25,0.954c-1.535,0.686-3.054,1.593-4.599,2.559
				c-1.513,1.021-3.027,2.152-4.415,3.476c-1.418,1.287-2.712,2.75-3.917,4.278c-1.239,1.503-2.307,3.142-3.31,4.78
				c-0.985,1.649-1.829,3.354-2.59,5.022c-1.472,3.363-2.608,6.611-3.33,9.455c-0.746,2.85-1.218,5.276-1.457,6.992
				C521.839,84.687,521.756,85.678,521.756,85.678z"/>
		</g>
		<g>
			<path fill="#FFFFFF" d="M548.454,67.511c0,0-0.439-1.168-0.412-3.039c0.014-0.466,0.026-0.974,0.129-1.505
				c0.058-0.539,0.231-1.088,0.39-1.663c0.247-0.541,0.407-1.156,0.781-1.678c0.17-0.266,0.33-0.547,0.516-0.806l0.634-0.737
				c0.413-0.505,0.987-0.834,1.468-1.247c0.536-0.329,1.106-0.596,1.638-0.854c0.564-0.189,1.117-0.346,1.633-0.495
				c0.525-0.108,1.033-0.143,1.495-0.199c0.458-0.07,0.883-0.083,1.258-0.046c0.372,0.023,0.696,0.041,0.965,0.057
				c0.527,0.049,0.833,0.078,0.833,0.078s-0.3,0.066-0.821,0.186c-0.255,0.05-0.568,0.112-0.928,0.184
				c-0.358,0.047-0.753,0.153-1.175,0.291c-0.422,0.124-0.875,0.257-1.357,0.401c-0.456,0.202-0.929,0.413-1.426,0.608
				c-0.454,0.274-0.918,0.557-1.393,0.844c-0.402,0.375-0.896,0.66-1.234,1.106l-0.563,0.614c-0.168,0.221-0.307,0.46-0.464,0.688
				c-0.331,0.441-0.525,0.959-0.781,1.425c-0.169,0.505-0.405,0.973-0.513,1.458c-0.147,0.475-0.248,0.939-0.338,1.37
				C548.459,66.28,548.454,67.511,548.454,67.511z"/>
		</g>
		<g>
			<path fill="#FFFFFF" d="M713.751,93.226c0,0-0.002-0.14-0.01-0.391c0.006-0.253-0.036-0.627,0-1.1
				c0.058-0.947,0.101-2.318,0.436-3.926c0.135-0.809,0.374-1.666,0.599-2.581c0.286-0.896,0.536-1.864,0.964-2.805
				c0.364-0.965,0.864-1.914,1.375-2.878c0.268-0.472,0.587-0.924,0.882-1.393c0.286-0.472,0.613-0.92,0.975-1.343
				c0.358-0.424,0.696-0.864,1.074-1.264c0.403-0.381,0.8-0.761,1.194-1.139c0.377-0.398,0.83-0.702,1.27-1.016
				c0.44-0.305,0.855-0.635,1.299-0.908c0.928-0.467,1.787-1.013,2.697-1.304c0.908-0.279,1.728-0.67,2.545-0.797
				c0.81-0.166,1.556-0.29,2.211-0.398c0.664-0.048,1.245-0.048,1.719-0.072c0.955-0.028,1.491-0.023,1.491-0.023
				s-0.531,0.101-1.463,0.279c-0.464,0.085-1.025,0.163-1.663,0.302c-0.624,0.196-1.321,0.415-2.085,0.625
				c-0.773,0.188-1.529,0.628-2.364,0.96c-0.427,0.158-0.815,0.412-1.215,0.667c-0.4,0.249-0.82,0.483-1.238,0.735
				c-0.771,0.599-1.608,1.176-2.339,1.887c-0.366,0.358-0.735,0.719-1.104,1.08c-0.354,0.382-0.661,0.802-0.995,1.204
				c-0.349,0.392-0.66,0.81-0.937,1.254c-0.286,0.439-0.594,0.858-0.853,1.304c-0.489,0.912-1.03,1.782-1.411,2.7
				c-0.436,0.889-0.769,1.789-1.119,2.638c-0.289,0.864-0.596,1.677-0.789,2.453c-0.443,1.539-0.743,2.85-0.905,3.775
				C713.832,92.688,713.751,93.226,713.751,93.226z"/>
		</g>
		<g>
			<path fill="#FFFFFF" d="M725.625,84.515c0,0,0.028-0.204,0.053-0.546c0.032-0.339,0.084-0.84,0.223-1.427
				c0.063-0.297,0.151-0.614,0.276-0.943c0.123-0.327,0.256-0.683,0.454-1.019c0.185-0.344,0.391-0.69,0.656-1.014
				c0.256-0.328,0.558-0.631,0.867-0.921c0.335-0.258,0.665-0.527,1.036-0.722c0.351-0.234,0.74-0.366,1.107-0.506
				c0.356-0.162,0.741-0.205,1.084-0.28c0.346-0.087,0.682-0.092,0.986-0.1c0.608-0.046,1.11,0.041,1.456,0.096
				c0.349,0.058,0.539,0.102,0.539,0.102s-0.19,0.065-0.525,0.159c-0.166,0.042-0.364,0.094-0.594,0.153
				c-0.232,0.043-0.474,0.162-0.745,0.237c-0.271,0.085-0.563,0.17-0.852,0.302c-0.294,0.128-0.605,0.234-0.899,0.404
				c-0.609,0.298-1.201,0.688-1.733,1.152c-1.071,0.916-1.866,2.16-2.413,3.164c-0.28,0.516-0.516,0.943-0.681,1.245
				C725.75,84.363,725.625,84.515,725.625,84.515z"/>
		</g>
		<g>
			<path fill="#FFFFFF" d="M762.601,93.226c0,0-0.004-0.14-0.011-0.391c0.005-0.253-0.037-0.627,0-1.1
				c0.057-0.947,0.101-2.318,0.436-3.926c0.135-0.809,0.374-1.666,0.599-2.581c0.286-0.896,0.535-1.864,0.965-2.805
				c0.363-0.965,0.863-1.914,1.373-2.878c0.27-0.472,0.589-0.924,0.883-1.393c0.286-0.472,0.612-0.92,0.975-1.343
				c0.358-0.424,0.696-0.864,1.076-1.264c0.4-0.381,0.799-0.761,1.193-1.139c0.376-0.398,0.83-0.702,1.268-1.016
				c0.442-0.305,0.856-0.635,1.301-0.908c0.929-0.467,1.786-1.013,2.697-1.304c0.906-0.279,1.728-0.67,2.545-0.797
				c0.81-0.166,1.555-0.29,2.209-0.398c0.666-0.048,1.245-0.048,1.722-0.072c0.953-0.028,1.489-0.023,1.489-0.023
				s-0.531,0.101-1.463,0.279c-0.464,0.085-1.025,0.163-1.663,0.302c-0.623,0.196-1.322,0.415-2.086,0.625
				c-0.773,0.188-1.529,0.628-2.364,0.96c-0.425,0.158-0.815,0.412-1.214,0.667c-0.399,0.249-0.82,0.483-1.237,0.735
				c-0.771,0.599-1.61,1.176-2.34,1.887c-0.366,0.358-0.734,0.719-1.104,1.08c-0.354,0.382-0.659,0.802-0.995,1.204
				c-0.349,0.392-0.661,0.81-0.936,1.254c-0.287,0.439-0.594,0.858-0.854,1.304c-0.486,0.912-1.028,1.782-1.411,2.7
				c-0.435,0.889-0.768,1.789-1.118,2.638c-0.289,0.864-0.596,1.677-0.789,2.453c-0.443,1.539-0.742,2.85-0.905,3.775
				C762.68,92.688,762.601,93.226,762.601,93.226z"/>
		</g>
		<g>
			<path fill="#FFFFFF" d="M774.472,84.515c0,0,0.028-0.204,0.055-0.546c0.031-0.339,0.083-0.84,0.222-1.427
				c0.064-0.297,0.151-0.614,0.275-0.943c0.125-0.327,0.256-0.683,0.454-1.019c0.187-0.344,0.393-0.69,0.658-1.014
				c0.255-0.328,0.558-0.631,0.866-0.921c0.335-0.258,0.665-0.527,1.036-0.722c0.351-0.234,0.739-0.366,1.106-0.506
				c0.359-0.162,0.742-0.205,1.085-0.28c0.346-0.087,0.682-0.092,0.985-0.1c0.609-0.046,1.112,0.041,1.457,0.096
				c0.348,0.058,0.538,0.102,0.538,0.102s-0.19,0.065-0.525,0.159c-0.165,0.042-0.363,0.094-0.593,0.153
				c-0.231,0.043-0.475,0.162-0.745,0.237c-0.271,0.085-0.562,0.17-0.852,0.302c-0.294,0.128-0.605,0.234-0.899,0.404
				c-0.607,0.298-1.201,0.688-1.732,1.152c-1.073,0.916-1.868,2.16-2.414,3.164c-0.281,0.516-0.516,0.943-0.68,1.245
				C774.599,84.363,774.472,84.515,774.472,84.515z"/>
		</g>
		<g>
			<path fill="#FFFFFF" d="M349.824,57.602c-0.083-1.081-0.127-2.16-0.177-3.24c-0.059-1.08-0.097-2.16-0.113-3.239
				c-0.041-2.16-0.116-4.319-0.106-6.476c0.002-0.325,0.267-0.59,0.593-0.589l0.031,0.002l0.02,0.001l3.11,0.184l1.505,0.009
				c0.504-0.023,1.013-0.104,1.519-0.146c1.011-0.091,2.066-0.246,3.098-0.364c0.496-0.061,1.069-0.139,1.585-0.16l1.564-0.103
				c1.031-0.097,2.15,0.018,3.213,0.053l1.594,0.256c0.532,0.052,1.045,0.26,1.563,0.41c0.256,0.085,0.518,0.152,0.769,0.25
				l0.725,0.373c0.238,0.133,0.481,0.248,0.707,0.395l0.63,0.517c0.446,0.309,0.757,0.762,1.089,1.176
				c0.349,0.404,0.498,0.941,0.748,1.392c-0.325-0.418-0.561-0.887-0.941-1.237c-0.371-0.357-0.707-0.74-1.167-0.976l-0.639-0.404
				c-0.227-0.11-0.472-0.188-0.705-0.283l-0.694-0.288c-0.241-0.073-0.494-0.117-0.739-0.177c-0.495-0.102-0.972-0.26-1.488-0.271
				l-1.515-0.127l-1.518,0.041c-0.501-0.002-1.006,0.005-1.532,0.079l-1.559,0.164c-0.526,0.048-0.988,0.115-1.528,0.188
				c-1.042,0.136-2.052,0.297-3.12,0.409c-0.533,0.046-1.063,0.116-1.6,0.137l-1.625-0.028c-1.056-0.065-2.094-0.175-3.14-0.272
				l0.645-0.586c-0.058,2.157-0.198,4.313-0.308,6.469c-0.048,1.078-0.121,2.157-0.214,3.234
				C350.017,55.447,349.938,56.525,349.824,57.602z"/>
		</g>
		<g>
			<path fill="#FFFFFF" d="M606.911,57.602c-0.082-1.081-0.129-2.16-0.178-3.24c-0.061-1.08-0.099-2.16-0.114-3.239
				c-0.04-2.159-0.115-4.319-0.104-6.476c0.002-0.325,0.268-0.59,0.593-0.589l0.031,0.002l0.02,0.001l3.11,0.184l1.505,0.009
				c0.507-0.023,1.015-0.104,1.518-0.146c1.014-0.091,2.068-0.246,3.1-0.364c0.494-0.061,1.069-0.139,1.585-0.16l1.564-0.103
				c1.029-0.097,2.151,0.018,3.211,0.053l1.595,0.256c0.533,0.052,1.047,0.26,1.564,0.41c0.254,0.083,0.519,0.152,0.766,0.25
				l0.728,0.373c0.238,0.133,0.479,0.248,0.706,0.395l0.63,0.517c0.445,0.308,0.759,0.762,1.09,1.174
				c0.351,0.406,0.497,0.942,0.748,1.394c-0.324-0.418-0.562-0.887-0.94-1.237c-0.371-0.357-0.706-0.74-1.168-0.976l-0.638-0.406
				c-0.227-0.108-0.469-0.187-0.701-0.281l-0.695-0.288c-0.24-0.073-0.492-0.118-0.741-0.177c-0.495-0.102-0.972-0.26-1.487-0.271
				l-1.517-0.127l-1.516,0.041c-0.503-0.002-1.009,0.005-1.532,0.079l-1.558,0.164c-0.525,0.048-0.987,0.115-1.528,0.188
				c-1.042,0.136-2.053,0.297-3.118,0.409c-0.533,0.046-1.064,0.118-1.604,0.137l-1.623-0.028c-1.056-0.065-2.095-0.175-3.142-0.272
				l0.647-0.586c-0.06,2.157-0.198,4.313-0.31,6.469c-0.046,1.078-0.12,2.157-0.212,3.234
				C607.105,55.447,607.024,56.525,606.911,57.602z"/>
		</g>
		<g>
			<path fill="#FFFFFF" d="M378.343,48.297c0,0,0.066-0.276,0.278-0.735c0.22-0.45,0.595-1.07,1.174-1.728
				c0.586-0.642,1.376-1.314,2.33-1.862c0.482-0.256,0.988-0.525,1.528-0.725c0.547-0.175,1.092-0.4,1.665-0.504
				c1.134-0.256,2.293-0.374,3.37-0.348c1.08-0.009,2.07,0.136,2.909,0.289c0.842,0.126,1.513,0.382,1.988,0.511
				c0.47,0.156,0.738,0.246,0.738,0.246s-0.285,0.005-0.78,0.015c-0.493,0.017-1.184-0.047-2.015-0.017
				c-0.414,0.014-0.86,0.028-1.329,0.023c-0.471,0.001-0.962,0.08-1.469,0.096c-0.51,0.005-1.023,0.118-1.547,0.178
				c-0.53,0.044-1.048,0.174-1.569,0.294c-0.529,0.079-1.025,0.274-1.529,0.415c-0.49,0.175-0.973,0.354-1.427,0.557
				c-0.438,0.23-0.886,0.418-1.269,0.671c-0.404,0.225-0.743,0.49-1.083,0.715c-0.636,0.497-1.137,0.964-1.47,1.32
				C378.511,48.067,378.343,48.297,378.343,48.297z"/>
		</g>
		<g>
			<path fill="#FFFFFF" d="M405.649,57.602c-0.083-1.081-0.127-2.16-0.178-3.24c-0.057-1.08-0.097-2.16-0.112-3.239
				c-0.044-2.16-0.115-4.319-0.106-6.476c0.001-0.325,0.268-0.59,0.594-0.589l0.032,0.002l0.02,0.001l3.109,0.184l1.506,0.009
				c0.504-0.023,1.012-0.104,1.518-0.146c1.012-0.091,2.067-0.246,3.1-0.364c0.495-0.061,1.067-0.139,1.586-0.16l1.563-0.103
				c1.031-0.097,2.15,0.018,3.21,0.053l1.594,0.256c0.534,0.052,1.046,0.26,1.563,0.41c0.255,0.085,0.517,0.152,0.768,0.25
				l0.727,0.373c0.235,0.133,0.481,0.248,0.706,0.395l0.627,0.517c0.446,0.309,0.759,0.762,1.091,1.176
				c0.348,0.404,0.498,0.941,0.748,1.392c-0.325-0.418-0.562-0.887-0.942-1.237c-0.37-0.357-0.706-0.74-1.167-0.976l-0.637-0.404
				c-0.228-0.11-0.472-0.188-0.704-0.283l-0.695-0.288c-0.241-0.073-0.495-0.117-0.738-0.177c-0.495-0.102-0.974-0.26-1.49-0.271
				l-1.516-0.127l-1.517,0.041c-0.502-0.002-1.007,0.005-1.531,0.079l-1.558,0.164c-0.527,0.048-0.986,0.115-1.528,0.189
				c-1.042,0.135-2.052,0.296-3.121,0.408c-0.534,0.046-1.062,0.116-1.6,0.137l-1.627-0.028c-1.056-0.065-2.094-0.175-3.14-0.272
				l0.646-0.586c-0.057,2.157-0.198,4.313-0.309,6.469c-0.047,1.078-0.121,2.157-0.212,3.234
				C405.845,55.447,405.765,56.525,405.649,57.602z"/>
		</g>
		<g>
			<path fill="#FFFFFF" d="M434.171,48.297c0,0,0.067-0.276,0.279-0.735c0.217-0.45,0.596-1.07,1.17-1.728
				c0.591-0.642,1.376-1.314,2.331-1.862c0.482-0.256,0.987-0.527,1.527-0.725c0.547-0.175,1.093-0.4,1.666-0.504
				c1.132-0.256,2.295-0.375,3.374-0.348c1.074-0.009,2.068,0.136,2.905,0.289c0.843,0.126,1.514,0.382,1.994,0.511
				c0.467,0.156,0.735,0.246,0.735,0.246s-0.284,0.005-0.779,0.015c-0.492,0.017-1.185-0.047-2.014-0.017
				c-0.416,0.014-0.862,0.028-1.33,0.023c-0.471,0.001-0.963,0.08-1.469,0.096c-0.513,0.005-1.023,0.118-1.546,0.178
				c-0.531,0.044-1.049,0.174-1.57,0.294c-0.529,0.079-1.023,0.274-1.529,0.415c-0.49,0.175-0.972,0.354-1.426,0.557
				c-0.438,0.23-0.887,0.418-1.269,0.671c-0.402,0.225-0.742,0.49-1.083,0.714c-0.634,0.498-1.137,0.965-1.468,1.321
				C434.339,48.067,434.171,48.297,434.171,48.297z"/>
		</g>
		<g>
			<path fill="#FFFFFF" d="M635.631,48.297c0,0,0.067-0.276,0.278-0.735c0.22-0.45,0.593-1.07,1.175-1.728
				c0.586-0.642,1.375-1.314,2.329-1.862c0.481-0.256,0.987-0.527,1.528-0.725c0.545-0.175,1.092-0.4,1.664-0.504
				c1.136-0.256,2.295-0.375,3.374-0.348c1.077-0.009,2.066,0.136,2.908,0.289c0.84,0.126,1.514,0.382,1.99,0.511
				c0.466,0.156,0.737,0.246,0.737,0.246s-0.283,0.005-0.779,0.015c-0.494,0.017-1.186-0.047-2.015-0.017
				c-0.417,0.014-0.862,0.028-1.331,0.023c-0.47,0.001-0.962,0.08-1.467,0.096c-0.512,0.005-1.021,0.118-1.548,0.178
				c-0.528,0.044-1.05,0.174-1.57,0.294c-0.529,0.079-1.023,0.274-1.526,0.415c-0.492,0.175-0.976,0.354-1.429,0.557
				c-0.438,0.23-0.885,0.418-1.27,0.671c-0.401,0.225-0.742,0.49-1.083,0.714c-0.632,0.498-1.134,0.965-1.467,1.321
				C635.801,48.067,635.631,48.297,635.631,48.297z"/>
		</g>
		<g>
			<path fill="#FFFFFF" d="M479.677,27.664c-0.125-1.213-0.19-2.428-0.28-3.641c-0.087-1.213-0.112-2.428-0.172-3.642
				c-0.014-0.239,0.17-0.442,0.408-0.454l0.012-0.001h0.044c2.211-0.059,4.425-0.056,6.634-0.03
				c2.214,0.023,4.425,0.083,6.633,0.155c2.21,0.084,4.417,0.196,6.621,0.357c1.103,0.08,2.205,0.13,3.304,0.246
				c1.102,0.107,2.2,0.193,3.296,0.335c-1.111,0.09-2.221,0.128-3.33,0.183c-1.108,0.068-2.212,0.067-3.317,0.094
				c-2.215,0.06-4.426,0.071-6.63,0.053c-2.208-0.027-4.412-0.07-6.618-0.148c-2.203-0.077-4.405-0.173-6.61-0.334l0.461-0.456
				c-0.059,1.214-0.081,2.429-0.172,3.642S479.808,26.451,479.677,27.664z"/>
		</g>
		<g>
			<path fill="#FFFFFF" d="M684.785,106.716c-0.108-0.64-0.171-1.281-0.246-1.92c-0.082-0.641-0.131-1.282-0.183-1.923
				c-0.095-1.284-0.155-2.563-0.193-3.844c-0.008-0.3,0.202-0.551,0.485-0.604l0.028-0.006c0.568-0.109,1.111-0.181,1.665-0.233
				c0.555-0.062,1.109-0.119,1.664-0.121c0.554-0.026,1.11-0.042,1.668-0.021c0.554,0.028,1.108,0.025,1.664,0.092
				c0.552,0.057,1.102,0.135,1.651,0.204c0.55,0.083,1.089,0.236,1.627,0.361c0.542,0.111,1.073,0.277,1.587,0.5
				c0.518,0.202,1.028,0.402,1.526,0.632c-0.558-0.052-1.095-0.134-1.631-0.214c-0.531-0.101-1.072-0.131-1.613-0.165l-0.802-0.06
				c-0.266-0.02-0.529-0.069-0.799-0.062c-0.537-0.008-1.076-0.014-1.606-0.039c-0.535-0.028-1.073,0.025-1.607,0.021
				c-0.533-0.014-1.07,0.02-1.604,0.054c-1.063,0.042-2.143,0.14-3.174,0.267l0.514-0.61c-0.038,1.284-0.098,2.561-0.192,3.843
				c-0.052,0.64-0.102,1.284-0.185,1.923C684.955,105.435,684.892,106.075,684.785,106.716z"/>
		</g>
	</g>
	<g>
		
			<path fill="#8DC63F" stroke="#000000" stroke-width="2" stroke-linecap="round" stroke-linejoin="round" stroke-miterlimit="10" d="
			M37.241,34.954c10.161-4.903,7.444-1.559,12.127-0.306c9.177,2.451,9.474,11.223,17.011,8.772l-30.774,8.392
			c-8.195,2.144-13.112,5.518-32.12,1.838C6.76,49.361,27.41,40.165,37.241,34.954z"/>
		
			<path fill="#D7DF23" stroke="#000000" stroke-width="2" stroke-linecap="round" stroke-linejoin="round" stroke-miterlimit="10" d="
			M36.624,57.54c0.337,11.497-9.781,21.731-7.414,33.903c0.677,3.043,2.358,3.173,3.019,3.593c1.429,0.907,4.396,1.354,6.086,1.691
			c4.397,1.014,8.454,1.691,12.512,3.042c7.778,1.692,16.23,4.061,24.01,4.735c8.453,0.675,6.762-5.75,7.777-12.512
			c1.016-6.425,5.074-12.186,5.074-18.575c-0.003-5.057-11.499-5.736-16.571-12.498c-4.396-5.749-6.765-13.188-15.218-17.922
			C45.077,48.069,46.091,50.438,36.624,57.54"/>
		
			<path fill="#D7DF23" stroke="#000000" stroke-width="2" stroke-linecap="round" stroke-linejoin="round" stroke-miterlimit="10" d="
			M12.954,55.171c0.337,11.497-9.782,21.733-7.415,33.903c0.676,3.045,2.358,3.176,3.019,3.595c1.427,0.906,4.396,1.352,6.086,1.688
			c4.397,1.016,8.454,1.692,12.512,3.046c7.777,1.69,16.231,4.058,24.011,4.733c8.452,0.679,6.764-5.748,7.777-12.513
			c1.015-6.425,3.042-12.513,5.072-18.562c2.703-7.775,3.718-10.143-1.353-16.907c-4.396-5.748-6.764-13.187-15.216-17.922
			C36.625,41.309,22.422,48.069,12.954,55.171"/>
		
			<path fill="#FFFFFF" stroke="#000000" stroke-width="2" stroke-linecap="round" stroke-linejoin="round" stroke-miterlimit="10" d="
			M17.35,61.935c0,4.057-1.354,7.778-2.03,11.822c2.03,0.336,9.805,3.022,11.834,2.013c2.367-1.006,2.705-7.751,3.721-10.791l0,0
			C26.817,62.949,21.068,62.274,17.35,61.935"/>
		
			<path fill="#FFFFFF" stroke="#000000" stroke-width="2" stroke-linecap="round" stroke-linejoin="round" stroke-miterlimit="10" d="
			M41.358,66.333c0,4.056-1.353,7.76-2.03,11.797c2.03,0.338,9.807,3.043,11.836,2.029c2.368-1.017,2.705-7.75,3.718-10.784l0,0
			C50.827,67.346,45.077,66.67,41.358,66.333"/>
		
			<path fill="#8DC63F" stroke="#000000" stroke-width="2" stroke-linecap="round" stroke-linejoin="round" stroke-miterlimit="10" d="
			M80.921,61.26c-2.028-4.396-2.705-10.482-6.423-13.865c-6.087-5.41-21.645-12.849-29.422-15.555l20.966,34.152
			c8.455,2.37,16.569,7.09,25.023,9.778C87.685,71.063,83.627,66.333,80.921,61.26z"/>
		
			<path fill="#FFDE17" stroke="#000000" stroke-width="2" stroke-linecap="round" stroke-linejoin="round" stroke-miterlimit="10" d="
			M130.508,32.412c-3.796-6.889-12.097-9.785-18.988-11.748c-6.197-1.667-23.135-1.678-28.634,2.711
			c-2.602,1.847-4.368,6.356-2.816,9.652c1.57,3.632,5.621,2.378,9.373,2.833c-0.495,5.066-2.629,11.054-4.657,16.407
			c-8.145,0.333-16.572,2.739-22.466,7.977c-0.337,1.016-1.014,2.366-1.014,3.383c-0.675,3.717,1.692,3.381,2.03,6.422
			c0.677,5.388-3.72,11.798-5.072,16.87c-2.03,8.454,4.396,9.47,6.763,1.69c0.913-2.924,1.432-6.145,1.929-9.397
			c3.327,1.146,7.598,2.769,10.583,3.313c3.703,0.853,7.885,2.9,11.739,3.532c-0.95,5.89-1.989,12.592,5.168,12.36
			c1.5-3.247,0.967-7.965,0.588-12.124c3.239-1.266,6.339-3.03,9.139-4.829c1.104-0.617,2.146-1.174,3.163-1.723
			c0.123,4.942-0.043,10.131,2.328,14.279c2.368,3.719,4.734,3.382,5.072-2.028c0.337-2.708-2.028-6.765-2.366-9.469
			c-0.31-1.705-0.688-3.408-1.044-5.114c0.166-0.107,0.339-0.205,0.507-0.318l-0.794-1.107c-0.299-1.524-0.558-3.054-0.698-4.585
			c-0.677-5.069,2.03-4.732,3.044-8.787c0.593-2.373-0.089-4.019-1.474-5.2c1.864-6.912,2.736-16.458,8.275-16.259
			c3.396,0.139,4.968,3.771,8.957,2.518C132.775,42.101,132.396,35.688,130.508,32.412z M99.865,34.563
			c1.473,0.177,3.141,0.56,5.025,1.039c-1.506,5.749-4.366,12.235-6.23,18.137c-0.418-0.082-0.817-0.166-1.169-0.259
			c-0.396-0.099-0.808-0.183-1.216-0.271c0.879-4.267,2.162-8.646,2.462-12.704C98.909,38.475,99.366,36.405,99.865,34.563z
			 M91.413,41.501c1.051-4.603,2.793-6.496,5.443-6.938c-0.982,5.677-3.141,12.136-4.469,18.007
			c-1.02-0.122-2.055-0.221-3.108-0.277C90.127,48.747,90.688,45.05,91.413,41.501z M76.526,78.807
			c-3.317-0.829-6.182-1.655-9.149-2.297c0.296-1.84,0.612-3.677,1.032-5.445c4.059,0.676,8.455,3.032,12.513,4.038
			c4.733,1.34,8.114-0.337,8.792,4.04c0.228,0.859,0.212,1.995,0.083,3.279C85.556,80.817,80.914,79.683,76.526,78.807z
			 M100.913,79.522c-1.757,1.037-4.065,1.813-6.126,2.775c0-0.035-0.001-0.076-0.001-0.11c0.338-6.751,4.396-9.439,10.82-12.137
			c0.969,1.938,1.375,4.15,1.569,6.48C104.941,77.449,102.455,78.481,100.913,79.522z M109.843,49.555
			c-0.367,1.02-1.434,3.405-2.116,5.849c-1.639-0.468-3.437-0.774-5.138-1.034c1.256-4.191,2.937-8.456,3.598-12.486
			c0.331-1.878,0.91-3.759,1.526-5.46C113.383,38.617,112.714,42.848,109.843,49.555z"/>
		<path stroke="#000000" stroke-linecap="round" stroke-linejoin="round" stroke-miterlimit="10" d="M55.594,98.646
			c-2.25,3.514-3.233,9.983-0.843,13.497c2.109,2.953,8.437,4.078,10.264,0.281c1.265-2.951,0.562-8.437-0.139-11.389
			C63.891,97.379,58.548,94.848,55.594,98.646"/>
		<path stroke="#000000" stroke-linecap="round" stroke-linejoin="round" stroke-miterlimit="10" d="M103.774,92.465
			c-2.398,3.748-3.448,10.644-0.9,14.391c2.248,3.151,8.994,4.351,10.942,0.303c1.349-3.149,0.601-8.995-0.148-12.144
			C112.62,91.116,106.922,88.418,103.774,92.465"/>
		
			<path fill="#ED1C24" stroke="#000000" stroke-width="2" stroke-linecap="round" stroke-linejoin="round" stroke-miterlimit="10" d="
			M115.074,87.259c-9.468-0.676-23.094,0.549-27.727-2.706c-8.37-5.876-16.57-8.11-26.715-7.438
			c-7.101,0.337-14.879,1.353-21.979,3.382c-8.793,2.702-15.217,5.748-19.952,13.862c-2.705,4.734-2.705,11.836-1.351,17.924
			c1.351-0.338,3.042,0,4.395-0.338c0.338-2.028,1.69-8.116,4.396-9.13c6.764-3.047,6.085,8.789,9.129,10.481
			c3.382,1.689,14.88-3.044,18.261-3.718c5.411-1.354,11.158-1.691,16.571-3.384c0-4.396-0.34-11.16,5.41-12.175
			c6.423-1.017,5.412,7.102,8.791,10.145c4.058,4.061,20.629-1.35,27.392-2.028l4.057-0.337c5.748-0.678,7.439,0.337,8.79-5.411
			C126.573,88.95,120.826,87.933,115.074,87.259z"/>
		
			<path fill="#FFFFFF" stroke="#000000" stroke-width="2" stroke-linecap="round" stroke-linejoin="round" stroke-miterlimit="10" d="
			M21.407,98.841c0-3.298,3.931-12.554,17.5-13.95c0.38,1.396,1.267,7.483,0.38,8.752C38.145,95.291,23.434,99.222,21.407,98.841"/>
		
			<path fill="#FFFFFF" stroke="#000000" stroke-width="2" stroke-linecap="round" stroke-linejoin="round" stroke-miterlimit="10" d="
			M55.391,82.735c-3.169-1.27-6.214-0.887-9.383-0.127c-1.395,0.252-2.79,0.634-4.058,1.143c-0.254,2.664,0,6.847,0.254,9.763
			c3.169-0.379,5.198-0.76,9.89-1.772c1.649-0.254,8.877-1.144,9.892-2.41C63.633,86.92,56.658,83.37,55.391,82.735z"/>
		
			<path fill="#FFFFFF" stroke="#000000" stroke-width="2" stroke-linecap="round" stroke-linejoin="round" stroke-miterlimit="10" d="
			M57.8,81.849c2.283,1.902,3.045,2.156,5.2,4.312c1.015,1.013,2.155,2.536,3.425,2.79c1.141,0.252,3.042-0.635,4.183-0.888
			c5.2-0.89,10.905-0.634,16.104-1.775c-2.156-4.314-9.689-5.655-14.075-6.344c-4.058-0.632-8.116-0.886-11.792,0.383
			C59.149,80.913,58.054,81.214,57.8,81.849"/>
		<path stroke="#000000" stroke-linecap="round" stroke-linejoin="round" stroke-miterlimit="10" d="M25.837,103.717
			c-2.251,3.515-3.234,9.986-0.843,13.5c2.108,2.951,8.437,4.08,10.264,0.282c1.265-2.953,0.563-8.439-0.14-11.39
			C34.134,102.452,28.792,99.922,25.837,103.717"/>
		
			<path fill="#A7A9AC" stroke="#000000" stroke-width="2" stroke-linecap="round" stroke-linejoin="round" stroke-miterlimit="10" d="
			M23.808,103.717c-2.25,3.515-3.235,9.986-0.844,13.5c2.109,2.951,8.437,4.08,10.265,0.282c1.264-2.953,0.563-8.439-0.142-11.39
			C32.104,102.452,26.762,99.922,23.808,103.717"/>
		
			<path fill="#E6E7E8" stroke="#000000" stroke-width="2" stroke-linecap="round" stroke-linejoin="round" stroke-miterlimit="10" d="
			M25.597,106.962c-1.231,1.923-1.768,5.455-0.461,7.38c1.152,1.615,4.613,2.23,5.611,0.151c0.693-1.613,0.311-4.612-0.075-6.228
			C30.133,106.27,27.213,104.886,25.597,106.962"/>
		<path stroke="#000000" stroke-linecap="round" stroke-linejoin="round" stroke-miterlimit="10" d="M74.017,96.522
			c-2.398,3.747-3.448,10.646-0.898,14.391c2.246,3.15,8.993,4.347,10.942,0.301c1.348-3.149,0.597-8.995-0.15-12.144
			C82.861,95.172,77.166,92.475,74.017,96.522"/>
		
			<path fill="#A7A9AC" stroke="#000000" stroke-width="2" stroke-linecap="round" stroke-linejoin="round" stroke-miterlimit="10" d="
			M71.989,96.522c-2.398,3.747-3.449,10.646-0.9,14.391c2.247,3.15,8.994,4.347,10.942,0.301c1.348-3.149,0.6-8.995-0.149-12.144
			C80.833,95.172,75.135,92.475,71.989,96.522"/>
		
			<path fill="#E6E7E8" stroke="#000000" stroke-width="2" stroke-linecap="round" stroke-linejoin="round" stroke-miterlimit="10" d="
			M73.953,100.535c-1.231,1.925-1.768,5.459-0.463,7.383c1.152,1.615,4.615,2.23,5.613,0.152c0.694-1.615,0.31-4.613-0.077-6.229
			C78.489,99.844,75.569,98.46,73.953,100.535"/>
		
			<polygon fill="#FFDE17" stroke="#000000" stroke-width="2" stroke-linecap="round" stroke-linejoin="round" stroke-miterlimit="10" points="
			103.24,92.998 97.153,93.674 99.182,99.762 104.253,98.745 		"/>
		
			<polygon fill="#FFDE17" stroke="#000000" stroke-width="2" stroke-linecap="round" stroke-linejoin="round" stroke-miterlimit="10" points="
			122.176,91.645 118.118,91.307 118.118,97.396 123.192,96.38 		"/>
	</g>
</g>
</svg>
